<svg xmlns="http://www.w3.org/2000/svg" width="256" height="256" viewBox="0 0 67.733 67.733"><path d="M28.511 55.932c-2.012-1.094-2.013-4.17-.004-11.906 1.172-4.512 2.681-10.901 2.681-11.347 0-.225-2.21.927-3.65 1.901-1.439.975-2.204.862-2.812-.413-.432-.906-.43-.978.052-1.623.729-.976 6.942-5.358 9.201-6.49 1.06-.53 2.514-1.035 3.232-1.12 1.18-.14 1.39-.08 2.173.621 1.63 1.457 1.53 2.333-1.67 14.638-2.074 7.972-2.342 9.26-1.928 9.25.164-.002 1.176-.598 2.251-1.322 1.075-.724 2.165-1.317 2.422-1.317.62 0 1.654 1.774 1.468 2.517-.178.707-7.631 5.725-9.638 6.487-1.603.61-2.811.65-3.778.124zm7.519-35.31c-1.048-.64-1.648-1.76-1.849-3.456-.127-1.076-.029-1.554.574-2.786.765-1.564 1.625-2.277 3.396-2.816 1.888-.576 4.247.852 4.956 2.998.282.855.288 1.305.029 2.3-.428 1.64-1.56 3.244-2.694 3.814-1.245.627-3.337.6-4.412-.055z" fill="#76a9d8"/></svg>