<svg xmlns="http://www.w3.org/2000/svg" width="256" height="256" viewBox="0 0 67.733 67.733"><g fill="#c79c64"><path d="M44.002 12.37c-.076.011-.15.025-.22.041-.407.092-.449.158-.973 1.524l-.548 1.428-.739.185a9.65 9.65 0 0 0-1.397.49l-.659.303-1.285-.743c-1.53-.883-1.584-.876-2.895.368-.724.687-.988 1.037-1.305 1.727l-.398.865.986 1.136.986 1.135-.223.961c-.123.529-.25 1.22-.282 1.536l-.06.575-.857.487c-1.866 1.057-1.836 1.03-1.795 1.67.082 1.267.654 2.822 1.323 3.599.304.352.389.358 1.859.133 1.464-.225 1.556-.218 1.861.129.177.2.673.63 1.102.954.885.668.813.455.836 2.497.007.62.065 1.187.13 1.26.064.075.513.3.997.5.935.387 2.281.569 3.136.423l.52-.088.567-1.416.567-1.415 1.235-.44c.68-.242 1.327-.477 1.44-.522.114-.047.761.245 1.482.67 1.465.862 1.47.861 2.687-.21.807-.71 1.562-1.805 1.672-2.425.065-.365-.018-.515-.881-1.596l-.953-1.193.186-.493c.103-.271.24-.924.307-1.45l.12-.958 1.063-.6c1.646-.927 1.645-.925 1.496-2.095a6.472 6.472 0 0 0-.99-2.702 183.86 183.86 0 0 0-.323-.488c-.137-.206-.552-.2-1.925.028-.685.113-1.265.21-1.29.213-.025.004-.41-.328-.857-.737-.447-.41-.964-.827-1.149-.926-.303-.162-.337-.332-.355-1.757-.02-1.487-.042-1.59-.405-1.827-.911-.592-2.648-.929-3.794-.756zm-1.162 5.335a6.254 6.254 0 0 1 3.786.57c3.263 1.618 4.453 6.064 2.448 9.147-.88 1.352-1.953 2.125-3.617 2.602-2.48.711-4.73.008-6.501-2.032-1.174-1.351-1.617-2.79-1.455-4.725.247-2.953 2.61-5.126 5.34-5.562z"/><path d="M32.16 46.242c3.592-3.55 2.631-9.49-1.907-11.784-3.328-1.683-7.266-.703-9.483 2.36-1.858 2.566-1.548 6.899.666 9.286 2.88 3.11 7.656 3.17 10.725.138zm-4.953 9.1c-.92.16-1.914.029-2.851-.377l-.733-.317-.206-1.426c-.113-.784-.252-1.499-.31-1.589-.056-.09-.543-.368-1.08-.618l-.976-.455-1.34.772-1.34.771-.873-.488c-.963-.538-1.679-1.331-2.205-2.444-.383-.812-.452-.629.973-2.597.446-.616.6-.945.5-1.068-.08-.098-.272-.565-.427-1.037l-.282-.86-1.446-.37c-.94-.241-1.508-.469-1.622-.65-.263-.415-.488-2.051-.379-2.751.15-.963.65-1.966 1.045-2.096.188-.061.882-.184 1.544-.271l1.202-.16.53-1.047.529-1.047-.686-1.165c-.966-1.64-.967-1.649-.367-2.558.684-1.036 1.365-1.62 2.402-2.06l.851-.362 1.236.945 1.236.946 1.112-.365 1.112-.366.403-1.538.404-1.539.653-.214c.957-.314 2.33-.286 3.369.069 1.048.358 1.06.377 1.321 2.291l.171 1.255 1.065.505 1.064.506 1.341-.786 1.34-.786.671.328c1.05.512 1.957 1.522 2.341 2.606l.32.901-.897 1.19-.897 1.19.37 1.136.37 1.137 1.562.426 1.562.426.232.975c.274 1.149.134 2.535-.348 3.452l-.315.598-1.504.235-1.505.234-.523 1.047-.523 1.046.77 1.28c.424.705.766 1.372.76 1.483-.014.29-.746 1.399-1.271 1.927-.415.417-1.61 1.156-2.166 1.338-.145.048-.734-.287-1.526-.868-.71-.52-1.344-.92-1.41-.891-.066.03-.562.21-1.101.399l-.982.344-.303 1.238c-.475 1.94-.443 1.905-1.967 2.17z"/><path d="M25.847 34.43c-1.738.272-3.358 1.234-4.485 2.792-1.68 2.32-1.4 6.239.601 8.398 2.606 2.811 6.924 2.866 9.699.124 3.248-3.211 2.38-8.581-1.724-10.656a6.722 6.722 0 0 0-4.09-.659zm.223 1.33a5.368 5.368 0 0 1 3.266.527c3.277 1.657 3.971 5.946 1.377 8.51-2.215 2.19-5.664 2.146-7.745-.1-1.598-1.724-1.822-4.853-.48-6.706.9-1.244 2.194-2.012 3.582-2.23zM42.927 18.303c-2.468.395-4.604 2.36-4.828 5.03-.146 1.75.254 3.05 1.315 4.273 1.602 1.845 3.636 2.48 5.88 1.837 1.504-.431 2.475-1.13 3.27-2.353 1.813-2.788.737-6.809-2.213-8.271a5.656 5.656 0 0 0-3.424-.516zm.165 1.139a4.516 4.516 0 0 1 2.734.412c2.357 1.167 3.216 4.378 1.768 6.605-.635.976-1.41 1.534-2.612 1.879-1.792.513-3.416.006-4.695-1.467-.848-.976-1.167-2.015-1.05-3.413.178-2.132 1.884-3.701 3.855-4.016z"/></g></svg>