<svg xmlns="http://www.w3.org/2000/svg" width="25" height="25"><defs><linearGradient id="a" y2="127.762" x2="211.764" y1="127.762" x1="1.321" gradientTransform="scale(1.20333 .83103)" gradientUnits="userSpaceOnUse"><stop offset="0%" stop-opacity=".1"/><stop offset="100%" stop-opacity=".2"/></linearGradient></defs><g transform="matrix(1.3 0 0 1.3 -112.3 -112.275)" fill="none" fill-rule="evenodd"><circle r="9.381" cy="95.915" cx="96" fill="#f7f7f7" paint-order="markers stroke fill"/><path d="M101.611 100.86H90.373a.805.805 0 0 1-.803-.803v-8.119c0-.436.356-.803.803-.803h11.238c.436 0 .803.356.803.803v8.12a.798.798 0 0 1-.803.802z" fill="#e3e3e3"/><path d="M91.176 100.86l4.805-3.865.034-.206-4.954-3.567-.012 7.466z" opacity=".1" fill="#231f20"/><path d="M90.373 100.86a.798.798 0 0 1-.803-.803v-8.13c0-.448.356-.528.803-.528.447 0 .803.092.803.528v8.933z" fill="#d54b3d"/><path d="M90.373 91.514c.573 0 .688.172.688.413v8.818h-.688a.69.69 0 0 1-.688-.688v-8.13c0-.253.114-.413.688-.413zm0-.115c-.447 0-.803.092-.803.528v8.13c0 .448.356.803.803.803h.803v-8.933c0-.448-.356-.528-.803-.528z" fill="#d72b27"/><path d="M101.611 100.86h-.802v-8.956c0-.448.355-.505.802-.505.448 0 .803.057.803.505v8.165a.795.795 0 0 1-.803.791z" fill="#d54b3d"/><path d="M101.611 91.514c.516 0 .688.103.688.39v8.165a.69.69 0 0 1-.688.688h-.688v-8.853c0-.299.172-.39.688-.39zm0-.115c-.447 0-.802.057-.802.505v8.967h.802a.798.798 0 0 0 .803-.802v-8.165c0-.448-.355-.505-.803-.505z" fill="#d72b27"/><path d="M170.667 193.595L1.58 23.195l8.894 3.617 117.702 84.755L254.74 18.76v159.157c0 8.634-7.044 15.678-15.906 15.678z" fill="url(#a)" transform="matrix(.05047 0 0 .05047 89.558 91.09)"/><path d="M95.98 96.995l-6.066-4.403c-.355-.264-.459-.769-.195-1.124a.832.832 0 0 1 1.147-.172l5.126 3.727 5.16-3.773a.798.798 0 0 1 1.124.183.798.798 0 0 1-.183 1.124z" fill="#d54b3d"/><path d="M101.611 91.204a.7.7 0 0 1 .562.287c.218.31.15.734-.149.963l-6.043 4.404-5.998-4.358c-.31-.23-.39-.665-.172-.963a.722.722 0 0 1 .573-.287c.15 0 .299.046.413.138l5.115 3.715.069.046.068-.046 5.15-3.773a.76.76 0 0 1 .412-.126zm0-.115a.79.79 0 0 0-.47.15l-5.16 3.772-5.126-3.727a.8.8 0 0 0-.482-.149.825.825 0 0 0-.665.333c-.253.355-.15.86.206 1.124l6.067 4.415 6.1-4.45a.817.817 0 0 0 .184-1.124.786.786 0 0 0-.654-.344z" fill="#d72b27"/></g></svg>