<svg xmlns="http://www.w3.org/2000/svg" width="100" height="100"><path fill="#d5a238" d="M11.974 7.5l7.085 76.332L50.047 92.5l30.894-8.668L88.027 7.5h-37.98z"/><path fill="#e4bd38" d="M50.047 13.745v72.23l25.036-6.99 6.047-65.24z"/><path fill="#fff" d="M72.155 42.171H37.482l.378-9.6H61.95l.378 5.5h9.731l-2.078-15.006H31.436L28.79 51.678v-.187H61.48l-1.04 12.116-10.392 2.89-10.581-2.983-.661-7.27h-9.637l1.417 14.54 19.462 5.499 19.462-5.499z"/><path d="M50.047 23.065H31.436L28.79 51.678l.095-.187h21.257v-9.32H38.805l.472-9.6h10.77zm-11.242 33.18h-9.637l1.417 14.632 19.462 5.406v-9.786l-10.581-2.983z" fill="#eaeaea"/></svg>