<svg xmlns="http://www.w3.org/2000/svg" width="25" height="25"><g transform="matrix(1.3 0 0 1.3 -112.3 -112.275)" fill="none" fill-rule="evenodd"><circle r="9.381" cy="95.915" cx="96" fill="#5181b8" stroke-width=".469" stroke-linecap="square" stroke-linejoin="round" paint-order="markers stroke fill"/><path d="M101.603 93.268c.081-.27 0-.469-.386-.469h-1.275a.55.55 0 0 0-.555.361s-.649 1.581-1.568 2.609c-.297.297-.433.392-.595.392-.08 0-.198-.095-.198-.365v-2.528c0-.324-.094-.469-.365-.469h-2.004c-.203 0-.325.15-.325.293 0 .308.46.379.507 1.244v1.879c0 .411-.075.486-.237.486-.432 0-1.484-1.588-2.108-3.406-.123-.353-.245-.496-.571-.496h-1.276c-.364 0-.437.172-.437.361 0 .338.432 2.014 2.013 4.23 1.055 1.514 2.54 2.335 3.892 2.335.81 0 .91-.183.91-.496v-1.145c0-.364.078-.437.334-.437.19 0 .514.095 1.27.825.866.865 1.008 1.253 1.495 1.253h1.276c.364 0 .546-.183.441-.542-.115-.359-.528-.879-1.076-1.495-.297-.352-.743-.73-.878-.92-.19-.243-.135-.35 0-.567 0 0 1.554-2.19 1.716-2.933z" fill="#fff" stroke-width=".091"/></g></svg>