<svg xmlns="http://www.w3.org/2000/svg" width="256" height="256" viewBox="0 0 67.733 67.733"><path d="M14.894 47.91c-.679-.115-1.186-.515-1.596-1.262-.15-.273-.162-1.186-.166-12.771L13.128 21.4l.308-.516c.193-.324.478-.63.767-.823l.459-.307H53.035l.472.303c.26.167.59.491.74.727l.27.425v25.353l-.271.369c-.373.507-.663.76-1.074.93-.312.131-2.372.146-19.087.136-10.305-.006-18.94-.046-19.19-.088zm2.41-1.565c1.237-.941 5.636-4.37 8.993-7.008l3.482-2.737.522.314c1.055.636 2.849 1.051 4.041.936 1.226-.119 2.63-.571 3.338-1.075l.263-.187 5.24 4.113c7.265 5.704 7.78 6.09 8.199 6.141.65.08 1.34-.54 1.34-1.204 0-.636-.142-.783-2.583-2.707l-6.095-4.8c-2.044-1.61-3.809-3.002-3.922-3.093l-.205-.167.238-.211c1.6-1.426 11.7-10.759 12.07-11.153.412-.439.496-.587.496-.874 0-.865-.568-1.348-1.512-1.286-.31.02-.478.167-6.709 5.869a8275.03 8275.03 0 0 1-6.688 6.116c-.82.748-1.55 1.328-1.859 1.48-1.905.932-3.736.62-5.425-.926-9.921-9.08-12.716-11.63-13.143-11.994-.519-.442-1.019-.657-1.31-.564-.764.243-1.057.592-1.057 1.256 0 .354.06.46.543.972.442.467 11.136 10.357 12.01 11.107l.251.215-.205.163c-.23.182-4.73 3.728-9.346 7.362-1.714 1.35-3.08 2.492-3.142 2.63-.393.863.326 1.92 1.23 1.81.227-.029.558-.203.945-.498z" fill="#ffcc3e" paint-order="markers stroke fill"/></svg>