<svg xmlns="http://www.w3.org/2000/svg" width="25" height="25" fill="none"><path d="M12.5.428C5.831.428.43 5.829.43 12.498c0 5.34 3.455 9.852 8.253 11.45.603.107.83-.256.83-.572 0-.287-.015-1.238-.015-2.248-3.033.558-3.817-.74-4.059-1.419-.136-.347-.724-1.418-1.237-1.704-.422-.227-1.026-.785-.015-.8.95-.015 1.63.875 1.856 1.237 1.086 1.826 2.821 1.313 3.515.996.106-.785.422-1.313.77-1.614-2.686-.302-5.492-1.343-5.492-5.96 0-1.312.467-2.399 1.237-3.244-.12-.301-.543-1.539.12-3.198 0 0 1.011-.317 3.32 1.237a11.2 11.2 0 0 1 3.017-.407c1.026 0 2.052.135 3.018.407 2.308-1.57 3.319-1.237 3.319-1.237.664 1.66.241 2.897.12 3.198.77.845 1.238 1.916 1.238 3.244 0 4.632-2.822 5.658-5.507 5.96.437.377.814 1.1.814 2.232 0 1.615-.015 2.912-.015 3.32 0 .316.227.694.83.573 4.768-1.6 8.223-6.125 8.223-11.451 0-6.669-5.401-12.07-12.07-12.07z" clip-rule="evenodd" fill="#000" fill-rule="evenodd"/></svg>