<svg xmlns="http://www.w3.org/2000/svg" id="svg14" width="100" height="100"><defs id="defs18"><filter id="filter6593" color-interpolation-filters="sRGB"><feFlood flood-opacity=".498" flood-color="#000" result="flood" id="feFlood6583"/><feComposite in="flood" in2="SourceGraphic" operator="in" result="composite1" id="feComposite6585"/><feGaussianBlur in="composite1" stdDeviation=".9" result="blur" id="feGaussianBlur6587"/><feOffset dx="1" dy="-1" result="offset" id="feOffset6589"/><feComposite in="SourceGraphic" in2="offset" result="composite2" id="feComposite6591"/></filter><filter id="filter6605" color-interpolation-filters="sRGB"><feFlood flood-opacity=".498" flood-color="#000" result="flood" id="feFlood6595"/><feComposite in="flood" in2="SourceGraphic" operator="in" result="composite1" id="feComposite6597"/><feGaussianBlur in="composite1" stdDeviation=".9" result="blur" id="feGaussianBlur6599"/><feOffset dx="1" dy="-1" result="offset" id="feOffset6601"/><feComposite in="SourceGraphic" in2="offset" result="composite2" id="feComposite6603"/></filter><filter id="filter6617" color-interpolation-filters="sRGB"><feFlood flood-opacity=".498" flood-color="#000" result="flood" id="feFlood6607"/><feComposite in="flood" in2="SourceGraphic" operator="in" result="composite1" id="feComposite6609"/><feGaussianBlur in="composite1" stdDeviation=".9" result="blur" id="feGaussianBlur6611"/><feOffset dx="1" dy="-1" result="offset" id="feOffset6613"/><feComposite in="SourceGraphic" in2="offset" result="composite2" id="feComposite6615"/></filter></defs><style id="style4606"></style><style id="style2"></style><g id="g6658" transform="translate(.94 -1.734)" fill="#21ace2" stroke-width=".523"><path id="path4817" d="M57.592 12.558l-2.195 3.018c-2.934 4.318-3.212 9.681-1.176 14.451 2.146 5.062 6.534 9.042 11.668 10.924.212.08.427.15.64.222l.288.091c.304.095.601.202.914.262 14.19 2.74 18.04-7.277 19.064-8.755-3.372 4.855-9.04 6.013-15.993 4.325a17.565 17.565 0 0 1-1.673-.51 20.475 20.475 0 0 1-5.5-2.979c-6.22-4.72-10.095-13.716-6.037-21.05z" filter="url(#filter6617)"/><path id="path4815" d="M41.494 16.072l-4.063 5.737c-4.978 7.162-4.705 16.753-.823 24.329a32.069 32.069 0 0 0 2.195 3.672c.746 1.068 1.585 2.343 2.574 3.2.36.396.73.783 1.11 1.164l.301.287c.37.36.746.714 1.137 1.058l.038.04.013.013c.431.377.88.738 1.333 1.097l.3.235c.455.349.923.693 1.398 1.02l.039.039c.208.145.429.28.64.418l.3.196c.34.218.684.424 1.033.627l.144.091c.301.173.606.344.914.51l.327.17c.213.11.425.22.64.327l.091.052c.438.216.883.416 1.333.614l.3.118c.363.152.718.305 1.085.444.156.059.313.114.47.17.332.123.67.239 1.007.353.152.049.307.096.457.143.479.149.953.336 1.45.418 25.7 4.258 31.634-15.522 31.634-15.522-5.349 7.704-15.709 11.376-26.76 8.506a29.519 29.519 0 0 1-1.463-.418l-.432-.144c-.341-.111-.68-.231-1.019-.353-.154-.057-.305-.11-.457-.17-.369-.14-.737-.29-1.097-.444l-.301-.118a34 34 0 0 1-1.333-.627c-.226-.11-.456-.226-.68-.34l-.378-.195c-.288-.157-.582-.32-.863-.484l-.195-.118c-.35-.205-.694-.41-1.033-.627l-.313-.209a35.27 35.27 0 0 1-.667-.444 35.244 35.244 0 0 1-1.385-1.02l-.314-.234c-4.839-3.818-8.68-9.043-10.505-14.961-1.91-6.14-1.495-13.027 1.817-18.62z" filter="url(#filter6605)"/><path id="signet" d="M21.438 23.324l-5.37 6.82c-6.884 9.893-6.029 22.767-.772 33.28.126.25.262.498.393.745.082.16.15.317.234.47l.157.275c.09.168.184.321.275.484.166.289.338.576.51.862.094.157.178.313.274.47.191.306.39.612.588.915l.248.379c.276.41.562.812.85 1.215l.012.04.144.195c.25.346.51.683.77 1.02l.288.365c.234.293.478.585.719.876l.26.327c.326.38.657.753.994 1.123l.027.027.038.039c.328.358.666.708 1.006 1.058l.314.327c.265.265.539.523.81.784l.327.313c.362.34.723.68 1.097 1.006l.027.013.183.17c.329.284.668.56 1.006.837l.406.326c.274.22.553.44.836.654l.444.34c.31.228.626.46.94.679l.34.235.093.065c.3.205.61.403.915.601l.392.261c.468.297.943.593 1.424.876l.392.222c.354.203.7.407 1.058.601.195.105.405.199.601.3.254.134.5.262.758.393l.183.091.3.144c.401.191.808.38 1.216.562l.261.117c.465.205.936.4 1.411.588l.34.13c.442.17.886.341 1.333.497l.17.066c.492.17.99.328 1.489.483l.353.105c.508.154 1.006.334 1.529.43 33.286 6.072 42.962-20.004 42.962-20.004-8.119 10.58-22.535 13.377-36.194 10.27-.518-.116-1.024-.283-1.529-.43l-.379-.118c-.492-.15-.977-.303-1.463-.47l-.196-.079a38.496 38.496 0 0 1-1.294-.483l-.365-.144c-.47-.186-.938-.374-1.399-.575l-.287-.118c-.396-.179-.784-.361-1.176-.548l-.34-.17c-.306-.148-.6-.3-.901-.458a43.979 43.979 0 0 1-1.712-.94l-.366-.196a48.083 48.083 0 0 1-1.424-.876l-.379-.261c-.34-.22-.684-.438-1.02-.667l-.313-.235a37.9 37.9 0 0 1-.967-.692l-.418-.314c-.29-.221-.576-.45-.862-.68l-.392-.313a49.04 49.04 0 0 1-1.072-.901l-.117-.092A60.816 60.816 0 0 1 31.29 66l-.313-.314a39.577 39.577 0 0 1-.81-.797l-.327-.313a43.106 43.106 0 0 1-.993-1.059l-.053-.052a43.198 43.198 0 0 1-1.006-1.15l-.261-.313c-.248-.296-.493-.6-.732-.902l-.261-.327c-.288-.37-.58-.748-.85-1.123-7.582-10.342-10.307-24.61-4.246-36.324z" filter="url(#filter6593)"/></g></svg>