<svg xmlns="http://www.w3.org/2000/svg" height="25" viewBox="0 0 2327.252 3335.508" width="25" id="svg17" clip-rule="evenodd" fill-rule="evenodd" image-rendering="optimizeQuality" shape-rendering="geometricPrecision" text-rendering="geometricPrecision"><defs id="defs4"><style id="style2"><![CDATA[.fil2{fill:none}.fil0{fill:#424242}.fil1{fill:#424242;fill-rule:nonzero}]]></style></defs><g id="g4531" transform="matrix(1.3 0 0 1.3 -349.088 -500.326)"><circle r="1251.664" cy="1667.754" cx="1163.626" id="path4499" fill="#0077b5" stroke-width="62.574" stroke-linecap="square" stroke-linejoin="round" paint-order="markers stroke fill"/><g transform="matrix(3.96092 0 0 3.96092 153.592 657.72)" id="g5"><g id="post-linkedin" fill="#fff" stroke-width=".948"><path id="path4521" d="M158.515 424.324H86.022v-217.48h72.493z"/><path id="path4519" d="M122.268 165.764c-24.164 0-43.496-19.331-43.496-43.496 0-24.164 19.332-43.496 43.496-43.496 24.165 0 43.496 19.332 43.496 43.496 0 24.165-19.331 43.496-43.496 43.496z"/><path id="path2" d="M424.324 424.324H351.83V296.252c0-19.33-16.915-36.247-36.246-36.247-19.332 0-36.247 16.917-36.247 36.247v128.072h-72.493v-217.48h72.493v28.997c12.082-19.332 38.663-33.83 60.411-33.83 45.913 0 84.576 38.663 84.576 84.575z"/></g></g></g></svg>