<svg xmlns="http://www.w3.org/2000/svg" xmlns:xlink="http://www.w3.org/1999/xlink" id="svg14" width="100" height="100"><defs id="defs18"><linearGradient id="linearGradient4676"><stop id="stop4672" offset="0" style="stop-color:#222;stop-opacity:1"/><stop style="stop-color:#222;stop-opacity:1" offset=".661" id="stop4680"/><stop id="stop4674" offset="1" style="stop-color:#222;stop-opacity:0"/></linearGradient><radialGradient gradientTransform="matrix(.01954 0 0 .01954 14.64 14.64)" gradientUnits="userSpaceOnUse" r="2430.442" fy="1809.3" fx="1809.3" cy="1809.3" cx="1809.3" id="radialGradient4678" xlink:href="#linearGradient4676"/></defs><style id="style4606">.st2{fill:#fff}</style><style id="style2">.st2{fill:none;stroke:#00d8ff;stroke-width:144.7456;stroke-miterlimit:10}</style><g id="g4681" transform="matrix(.95 0 0 .95 2.5 2.5)"><circle r="47.5" cx="50" cy="50" id="path4498" style="opacity:1;fill:url(#radialGradient4678);fill-opacity:1;stroke:none;stroke-width:.0110909;stroke-linecap:square;stroke-linejoin:round;stroke-miterlimit:4;stroke-dasharray:none;stroke-dashoffset:0;stroke-opacity:1;paint-order:markers stroke fill"/><circle style="fill:#00d8ff;stroke-width:.01776707" id="circle6" r="5.376" cy="49.961" cx="49.95"/><path style="fill:none;stroke:#00d8ff;stroke-width:2.57170463;stroke-miterlimit:10" id="path8" d="M49.95 39.03c7.217 0 13.923 1.036 18.977 2.776 6.09 2.096 9.836 5.275 9.836 8.153 0 3-3.969 6.377-10.51 8.543-4.944 1.638-11.452 2.494-18.303 2.494-7.025 0-13.675-.803-18.676-2.512-6.327-2.162-10.138-5.583-10.138-8.525 0-2.855 3.576-6.009 9.581-8.102 5.075-1.767 11.945-2.826 19.233-2.826z" class="st2"/><path style="fill:none;stroke:#00d8ff;stroke-width:2.57170463;stroke-miterlimit:10" id="path10" d="M40.436 44.528c3.605-6.252 7.853-11.543 11.886-15.052 4.86-4.229 9.484-5.885 11.977-4.448 2.598 1.498 3.54 6.624 2.15 13.374-1.052 5.102-3.56 11.166-6.984 17.102-3.51 6.085-7.528 11.446-11.506 14.925-5.034 4.4-9.902 5.992-12.45 4.523-2.473-1.427-3.418-6.1-2.233-12.348 1.002-5.284 3.518-11.764 7.16-18.076z" class="st2"/><path style="fill:none;stroke:#00d8ff;stroke-width:2.57170463;stroke-miterlimit:10" id="path12" d="M40.445 55.517c-3.616-6.247-6.078-12.569-7.105-17.815-1.237-6.322-.363-11.156 2.128-12.597 2.596-1.503 7.507.24 12.66 4.815 3.896 3.459 7.895 8.661 11.328 14.592 3.52 6.08 6.158 12.238 7.183 17.42 1.299 6.56.247 11.572-2.3 13.045-2.47 1.43-6.99-.084-11.812-4.232-4.073-3.506-8.431-8.921-12.082-15.228z" class="st2"/></g></svg>