<svg xmlns="http://www.w3.org/2000/svg" xmlns:xlink="http://www.w3.org/1999/xlink" height="25" viewBox="0 0 2327.252 3335.508" width="25" id="svg17" clip-rule="evenodd" fill-rule="evenodd" image-rendering="optimizeQuality" shape-rendering="geometricPrecision" text-rendering="geometricPrecision"><defs id="defs4"><style id="style2"><![CDATA[.fil2{fill:none}.fil0{fill:#424242}.fil1{fill:#424242;fill-rule:nonzero}]]></style><linearGradient y2=".75" x2=".417" y1=".167" x1=".667" id="b"><stop id="stop4545" offset="0" stop-color="#37aee2"/><stop id="stop4547" offset="1" stop-color="#1e96c8"/></linearGradient><linearGradient y2="174.708" x2="146.527" y1="131.028" x1="123.641" id="w" gradientTransform="scale(1.0919 .91583)" gradientUnits="userSpaceOnUse"><stop id="stop4550" offset="0" stop-color="#eff7fc"/><stop id="stop4552" offset="1" stop-color="#fff"/></linearGradient><linearGradient xlink:href="#b" id="linearGradient4591" x1="160.008" y1="40.008" x2="100.008" y2="180" gradientUnits="userSpaceOnUse"/></defs><g id="g4581" transform="translate(21573.36 -11017.676) scale(176.91535)"><g id="g4589" transform="matrix(.07619 0 0 .07619 -124.507 62.56)"><circle cx="120" cy="120" id="circle4557" r="120" fill="url(#linearGradient4591)"/><path d="M98 175c-3.888 0-3.227-1.468-4.568-5.17L82 132.207 170 80" id="path4559" fill="#c8daea"/><path d="M98 175c3 0 4.325-1.372 6-3l16-15.558-19.958-12.035" id="path4561" fill="#a9c9dd"/><path d="M100.04 144.41l48.36 35.729c5.519 3.045 9.501 1.468 10.876-5.123l19.685-92.763c2.015-8.08-3.08-11.746-8.36-9.349l-115.59 44.571c-7.89 3.165-7.843 7.567-1.438 9.528l29.663 9.259 68.673-43.325c3.242-1.966 6.218-.91 3.776 1.258" id="path4563" fill="url(#w)"/></g></g></svg>